<svg width="448.152" height="65.75" viewBox="0 0 448.152 65.75"><g id="svgGroup" stroke-linecap="round" fill-rule="evenodd" font-size="9pt" stroke="#000" stroke-width="0.25mm" fill="none" style="stroke:#000;stroke-width:0.0025mm;fill:#000"><path d="M 238.875 46 L 239.219 47.469 A 106.358 106.358 0 0 1 236.792 48.838 Q 235.679 49.446 234.674 49.954 A 58.866 58.866 0 0 1 234.016 50.281 A 16.41 16.41 0 0 1 232.789 50.825 Q 231.306 51.406 230.25 51.406 Q 229.406 51.406 228.766 50.553 A 3.579 3.579 0 0 1 228.672 50.422 A 3.516 3.516 0 0 1 228.201 49.385 Q 228 48.673 228 47.75 A 5.064 5.064 0 0 1 228.013 47.419 Q 228.051 46.848 228.203 45.828 A 117.362 117.362 0 0 1 228.371 44.743 Q 228.447 44.263 228.534 43.737 A 210.715 210.715 0 0 1 228.719 42.641 Q 229.031 40.813 229.406 38.734 A 195.6 195.6 0 0 0 230.054 34.934 A 179.05 179.05 0 0 0 230.094 34.687 A 107.548 107.548 0 0 0 230.379 32.785 A 85.855 85.855 0 0 0 230.609 31.016 A 39.603 39.603 0 0 0 230.717 30.017 Q 230.806 29.058 230.812 28.377 A 10.939 10.939 0 0 0 230.813 28.281 A 13.507 13.507 0 0 0 230.789 27.455 Q 230.74 26.652 230.586 26.136 A 2.383 2.383 0 0 0 230.438 25.75 A 2.148 2.148 0 0 0 230.239 25.423 Q 230.118 25.261 229.981 25.161 A 0.798 0.798 0 0 0 229.5 25 Q 229.047 25 228.351 25.282 A 7.11 7.11 0 0 0 228.203 25.344 A 5.981 5.981 0 0 0 227.579 25.661 Q 227.037 25.975 226.422 26.453 Q 225.576 27.111 224.638 28.104 A 24.207 24.207 0 0 0 224.328 28.438 Q 223.219 29.656 222.094 31.375 A 13.491 13.491 0 0 0 221.179 32.994 A 12.045 12.045 0 0 0 221 33.391 A 16.184 16.184 0 0 0 220.33 35.264 A 17.963 17.963 0 0 0 220.25 35.547 A 25.965 25.965 0 0 0 219.89 37.04 A 31.067 31.067 0 0 0 219.703 38 Q 219.469 39.313 219.219 40.906 A 73.598 73.598 0 0 0 218.942 42.872 Q 218.741 44.461 218.672 45.688 Q 218.588 47.178 218.624 48.298 A 16.38 16.38 0 0 0 218.656 48.937 Q 218.219 49.156 217.453 49.5 Q 216.688 49.844 215.875 50.188 A 143.879 143.879 0 0 0 214.691 50.694 A 128.498 128.498 0 0 0 214.313 50.859 A 30.1 30.1 0 0 0 213.959 51.017 Q 213.578 51.189 213.31 51.326 A 7.764 7.764 0 0 0 213.156 51.406 L 212.094 50.375 Q 212.781 47.188 213.406 43.828 Q 214.031 40.469 214.516 37.5 A 160.175 160.175 0 0 0 214.901 35.025 Q 215.123 33.513 215.281 32.203 A 65.011 65.011 0 0 0 215.404 31.112 Q 215.563 29.586 215.563 28.719 A 15.788 15.788 0 0 0 215.535 27.754 Q 215.479 26.844 215.308 26.271 A 2.446 2.446 0 0 0 215.125 25.813 A 1.848 1.848 0 0 0 214.819 25.388 A 1.273 1.273 0 0 0 213.875 25 A 1.055 1.055 0 0 0 213.678 25.021 Q 213.359 25.083 212.832 25.321 A 9.209 9.209 0 0 0 212.781 25.344 A 6.442 6.442 0 0 0 212.192 25.655 Q 211.896 25.83 211.571 26.056 A 14.591 14.591 0 0 0 211.047 26.438 A 13.604 13.604 0 0 0 210.159 27.18 Q 209.717 27.581 209.251 28.061 A 24.837 24.837 0 0 0 208.938 28.391 A 17.013 17.013 0 0 0 207.82 29.723 Q 207.283 30.43 206.753 31.259 A 27.233 27.233 0 0 0 206.719 31.312 Q 206.094 32.25 205.656 33.266 A 18.416 18.416 0 0 0 205.064 34.842 A 21.392 21.392 0 0 0 204.875 35.453 A 26.97 26.97 0 0 0 204.476 36.985 A 32.026 32.026 0 0 0 204.266 37.969 Q 204 39.313 203.719 40.906 A 91.011 91.011 0 0 0 203.504 42.271 Q 203.211 44.234 203.094 45.688 Q 202.952 47.452 202.991 48.698 A 14.799 14.799 0 0 0 203 48.938 Q 202.594 49.156 201.859 49.5 A 54.321 54.321 0 0 1 200.526 50.102 A 60.107 60.107 0 0 1 200.328 50.188 A 133.09 133.09 0 0 0 199.168 50.694 A 118.648 118.648 0 0 0 198.797 50.859 A 23.125 23.125 0 0 0 198.452 51.017 Q 197.969 51.242 197.688 51.406 L 196.563 50.375 Q 197.219 47.063 197.828 43.5 A 486.088 486.088 0 0 0 198.41 40.023 A 415.945 415.945 0 0 0 198.938 36.719 A 177.955 177.955 0 0 0 199.374 33.751 Q 199.581 32.251 199.734 30.922 Q 199.978 28.806 200.022 27.522 A 15.413 15.413 0 0 0 200.031 27 Q 200.031 26.281 199.938 25.859 A 2.611 2.611 0 0 0 199.864 25.591 Q 199.82 25.461 199.766 25.356 A 1.146 1.146 0 0 0 199.672 25.203 A 0.989 0.989 0 0 0 199.539 25.054 Q 199.42 24.946 199.281 24.906 A 1.646 1.646 0 0 0 198.92 24.847 A 1.922 1.922 0 0 0 198.813 24.844 Q 198.53 24.844 198.057 24.946 A 8.45 8.45 0 0 0 197.953 24.969 Q 197.406 25.094 196.875 25.25 A 317.987 317.987 0 0 0 196.227 25.445 A 392.779 392.779 0 0 0 195.531 25.656 L 195.125 24.125 A 128.421 128.421 0 0 1 197.164 23.272 A 145.021 145.021 0 0 1 197.875 22.984 A 116.475 116.475 0 0 1 199.27 22.434 A 94.713 94.713 0 0 1 200.578 21.937 A 45.293 45.293 0 0 1 201.635 21.56 Q 202.281 21.339 202.844 21.172 Q 203.844 20.875 204.281 20.875 Q 204.637 20.875 204.894 20.965 A 1.133 1.133 0 0 1 205.047 21.031 A 0.879 0.879 0 0 1 205.357 21.309 Q 205.439 21.426 205.5 21.578 A 2.167 2.167 0 0 1 205.591 21.868 Q 205.666 22.177 205.699 22.61 A 7.418 7.418 0 0 1 205.703 22.672 Q 205.735 23.144 205.745 23.793 A 42.548 42.548 0 0 1 205.75 24.469 A 8.08 8.08 0 0 1 205.746 24.714 Q 205.742 24.832 205.736 24.966 A 17.971 17.971 0 0 1 205.719 25.25 A 48.04 48.04 0 0 1 205.684 25.738 A 60.642 60.642 0 0 1 205.641 26.266 A 50.708 50.708 0 0 1 205.539 27.318 A 55.052 55.052 0 0 1 205.531 27.391 A 26.815 26.815 0 0 0 205.477 27.949 A 21.447 21.447 0 0 0 205.438 28.469 Q 207.281 26.344 208.891 24.891 A 26.623 26.623 0 0 1 210.266 23.727 Q 211.129 23.048 211.938 22.547 A 13.656 13.656 0 0 1 213.258 21.822 Q 213.99 21.473 214.688 21.266 A 9.197 9.197 0 0 1 216.88 20.885 A 8.461 8.461 0 0 1 217.281 20.875 A 4.885 4.885 0 0 1 218.143 20.947 Q 218.635 21.035 219.038 21.232 A 2.87 2.87 0 0 1 219.219 21.328 Q 220 21.781 220.469 22.547 Q 220.938 23.313 221.141 24.281 Q 221.344 25.25 221.344 26.281 A 25.403 25.403 0 0 1 221.34 26.734 A 20.52 20.52 0 0 1 221.328 27.156 A 10.708 10.708 0 0 1 221.31 27.487 Q 221.299 27.636 221.285 27.803 A 22.627 22.627 0 0 1 221.25 28.156 Q 223.063 26.156 224.578 24.766 Q 226.094 23.375 227.438 22.516 A 13.962 13.962 0 0 1 228.583 21.853 Q 229.301 21.485 229.969 21.266 Q 231.156 20.875 232.344 20.875 A 4.839 4.839 0 0 1 233.466 21.001 A 4.213 4.213 0 0 1 234.016 21.172 Q 234.781 21.469 235.328 22.125 Q 235.875 22.781 236.188 23.828 Q 236.5 24.875 236.5 26.375 A 16.858 16.858 0 0 1 236.471 27.325 Q 236.442 27.851 236.381 28.441 A 32.092 32.092 0 0 1 236.297 29.172 A 87.865 87.865 0 0 1 236.006 31.263 A 105.731 105.731 0 0 1 235.797 32.594 Q 235.5 34.406 235.156 36.266 A 366.407 366.407 0 0 0 234.667 38.967 A 319.96 319.96 0 0 0 234.516 39.828 A 133.698 133.698 0 0 0 234.242 41.453 A 98.058 98.058 0 0 0 234.016 42.922 A 25.928 25.928 0 0 0 233.909 43.741 Q 233.816 44.559 233.813 45.148 A 7.696 7.696 0 0 0 233.813 45.188 Q 233.813 45.966 233.98 46.367 A 0.89 0.89 0 0 0 234.125 46.609 A 1.027 1.027 0 0 0 234.824 46.962 A 1.444 1.444 0 0 0 234.969 46.969 Q 235.875 46.969 236.734 46.734 A 14.216 14.216 0 0 0 237.375 46.542 Q 238.034 46.328 238.875 46 Z M 101.656 34.031 L 107.906 29.344 A 158.875 158.875 0 0 0 108.935 28.563 Q 110.305 27.512 111.285 26.707 A 52.658 52.658 0 0 0 111.422 26.594 A 17.069 17.069 0 0 0 112.039 26.06 Q 112.585 25.562 112.889 25.173 A 2.656 2.656 0 0 0 113.141 24.797 Q 113.469 24.182 112.883 23.895 A 1.416 1.416 0 0 0 112.766 23.844 A 2.49 2.49 0 0 0 112.361 23.733 Q 111.571 23.577 110.031 23.625 L 109.875 22.094 A 77.527 77.527 0 0 0 113.906 21.438 Q 115.875 21.063 117.844 21.063 A 10.022 10.022 0 0 1 118.321 21.073 Q 118.812 21.097 119.155 21.172 A 1.736 1.736 0 0 1 119.156 21.172 A 2.338 2.338 0 0 1 119.494 21.271 Q 119.668 21.338 119.805 21.429 A 1.211 1.211 0 0 1 119.938 21.531 Q 120.219 21.781 120.328 22.156 A 2.505 2.505 0 0 1 120.402 22.507 Q 120.426 22.681 120.434 22.878 A 4.768 4.768 0 0 1 120.438 23.062 A 0.936 0.936 0 0 1 120.384 23.355 Q 120.249 23.764 119.766 24.359 A 9.923 9.923 0 0 1 119.285 24.906 Q 118.689 25.539 117.797 26.313 Q 116.682 27.279 115.164 28.396 A 63.277 63.277 0 0 1 114.656 28.766 Q 112.813 30.094 110.469 31.531 L 106.75 33.813 A 14.882 14.882 0 0 1 107.559 34.875 Q 107.961 35.453 108.359 36.125 Q 109.156 37.469 109.953 38.938 Q 110.75 40.406 111.5 41.859 A 40.358 40.358 0 0 0 112.242 43.234 A 30.219 30.219 0 0 0 112.969 44.453 A 16.669 16.669 0 0 0 113.501 45.249 Q 113.775 45.633 114.042 45.952 A 8.601 8.601 0 0 0 114.359 46.313 Q 115.031 47.031 115.656 47.031 Q 116.375 47.031 117.281 46.922 A 4.078 4.078 0 0 0 118.001 46.763 Q 118.633 46.566 119.375 46.156 L 120.063 47.531 A 30.147 30.147 0 0 1 118.297 48.925 Q 117.187 49.732 116.141 50.313 A 11.725 11.725 0 0 1 115.088 50.834 Q 113.984 51.308 113.128 51.341 A 3.294 3.294 0 0 1 113 51.344 A 2.538 2.538 0 0 1 111.818 51.04 Q 111.455 50.851 111.097 50.545 A 5.167 5.167 0 0 1 110.859 50.328 Q 109.899 49.397 108.992 47.979 A 19.068 19.068 0 0 1 108.828 47.719 A 38.687 38.687 0 0 1 107.64 45.649 A 47.845 47.845 0 0 1 106.891 44.188 A 12769.62 12769.62 0 0 1 105.031 40.406 A 73.916 73.916 0 0 0 104.133 38.637 A 59.479 59.479 0 0 0 103.25 37.016 A 16.209 16.209 0 0 0 102.709 36.124 Q 102.418 35.678 102.133 35.321 A 6.488 6.488 0 0 0 101.563 34.688 Q 101.188 37.25 100.875 39.547 A 138.833 138.833 0 0 0 100.594 41.738 A 101.819 101.819 0 0 0 100.375 43.719 Q 100.231 45.154 100.18 46.269 A 28.38 28.38 0 0 0 100.156 46.922 Q 100.125 48.25 100.313 48.875 Q 99.875 49.094 99.109 49.438 A 530.935 530.935 0 0 0 97.926 49.971 A 597.273 597.273 0 0 0 97.516 50.156 A 146.289 146.289 0 0 1 96.707 50.52 A 125.022 125.022 0 0 1 95.938 50.859 A 22.261 22.261 0 0 0 95.586 51.017 Q 95.209 51.189 94.956 51.326 A 4.977 4.977 0 0 0 94.813 51.406 L 93.625 50.375 A 74.904 74.904 0 0 1 93.699 49.853 Q 93.822 49.009 94.039 47.602 A 527.27 527.27 0 0 1 94.063 47.453 Q 94.375 45.438 94.828 42.703 A 3760.631 3760.631 0 0 0 95.301 39.844 A 4834.741 4834.741 0 0 0 95.813 36.734 Q 96.344 33.5 96.875 30.125 A 1071.766 1071.766 0 0 0 97.906 23.438 Q 98.406 20.125 98.797 17.266 Q 99.133 14.808 99.353 12.824 A 120.13 120.13 0 0 0 99.422 12.188 A 66.474 66.474 0 0 0 99.524 11.143 Q 99.625 10.017 99.649 9.231 A 14.992 14.992 0 0 0 99.656 8.781 Q 99.656 8 99.563 7.563 Q 99.502 7.278 99.401 7.086 A 0.958 0.958 0 0 0 99.281 6.906 Q 99.094 6.688 98.813 6.641 Q 98.531 6.594 98.156 6.594 A 1.382 1.382 0 0 0 98.003 6.604 Q 97.84 6.622 97.606 6.675 A 8.262 8.262 0 0 0 97.359 6.734 Q 96.813 6.875 96.25 7.031 A 241.404 241.404 0 0 0 95.57 7.227 A 295.586 295.586 0 0 0 94.844 7.437 L 94.375 5.906 A 58.604 58.604 0 0 1 96.432 5.024 A 67.156 67.156 0 0 1 97.156 4.734 A 89.388 89.388 0 0 1 98.937 4.054 A 75.28 75.28 0 0 1 99.953 3.688 Q 101.281 3.219 102.313 2.922 A 15.021 15.021 0 0 1 102.788 2.793 Q 103.452 2.625 103.781 2.625 A 3.496 3.496 0 0 1 104.183 2.647 A 2.562 2.562 0 0 1 104.563 2.719 A 0.994 0.994 0 0 1 105.039 3.015 A 1.315 1.315 0 0 1 105.141 3.141 Q 105.37 3.462 105.495 4.083 A 5.025 5.025 0 0 1 105.5 4.109 Q 105.625 4.75 105.625 5.844 Q 105.625 7.063 105.438 8.875 A 127.631 127.631 0 0 1 105.23 10.737 Q 105.114 11.719 104.972 12.808 A 208.437 208.437 0 0 1 104.953 12.953 A 176.961 176.961 0 0 1 104.629 15.301 A 217.905 217.905 0 0 1 104.25 17.812 A 1285.117 1285.117 0 0 1 103.406 23.125 Q 102.969 25.844 102.516 28.625 A 692.109 692.109 0 0 0 101.707 33.703 A 632.2 632.2 0 0 0 101.656 34.031 Z M 364.25 25.656 L 363.813 24.188 A 2068.46 2068.46 0 0 1 366.438 22.969 A 102.199 102.199 0 0 1 367.672 22.406 A 79.082 79.082 0 0 1 368.813 21.906 A 35.834 35.834 0 0 1 369.596 21.581 Q 370.217 21.332 370.734 21.156 A 8.862 8.862 0 0 1 371.124 21.033 Q 371.672 20.875 372 20.875 A 1.511 1.511 0 0 1 373.134 21.382 A 2.487 2.487 0 0 1 373.438 21.781 A 6.679 6.679 0 0 1 373.731 22.313 Q 374.041 22.934 374.401 23.88 A 36.406 36.406 0 0 1 374.75 24.844 Q 375.26 26.267 375.828 28.094 A 118.955 118.955 0 0 1 376.016 28.703 Q 376.688 30.906 377.375 33.453 Q 378.063 36 378.734 38.766 Q 379.406 41.531 379.969 44.281 A 162.511 162.511 0 0 0 381.875 40.469 Q 382.813 38.531 383.672 36.672 A 187.782 187.782 0 0 0 384.5 34.855 A 159.932 159.932 0 0 0 385.266 33.125 A 86.181 86.181 0 0 0 385.949 31.512 A 62.736 62.736 0 0 0 386.531 30.047 Q 386.938 28.982 387.217 28.119 A 24.267 24.267 0 0 0 387.375 27.609 A 12.761 12.761 0 0 0 387.512 27.118 Q 387.688 26.43 387.688 26.031 Q 387.688 24.469 386.031 24.375 Q 385.5 24.313 384.828 24.5 A 8.228 8.228 0 0 0 384.291 24.671 Q 383.816 24.84 383.25 25.094 L 382.625 23.625 A 29.253 29.253 0 0 1 384.82 22.461 A 21.985 21.985 0 0 1 386.906 21.594 Q 388.938 20.875 390.156 20.875 Q 390.688 20.875 391.172 20.953 A 2.192 2.192 0 0 1 391.677 21.095 A 1.852 1.852 0 0 1 392.016 21.281 A 1.603 1.603 0 0 1 392.425 21.701 A 2.13 2.13 0 0 1 392.594 22 Q 392.753 22.341 392.796 22.846 A 4.724 4.724 0 0 1 392.813 23.25 Q 392.813 24.192 392.296 25.762 A 20.205 20.205 0 0 1 392.156 26.172 Q 391.515 27.99 390.201 30.809 A 105.114 105.114 0 0 1 390.141 30.937 A 160.276 160.276 0 0 1 389.018 33.284 Q 388.507 34.332 387.924 35.495 A 323.126 323.126 0 0 1 386.688 37.938 A 3887.339 3887.339 0 0 1 385.012 41.21 Q 383.527 44.105 381.75 47.563 Q 379.625 51.625 377.547 54.984 A 43.823 43.823 0 0 1 375.438 58.102 A 32.683 32.683 0 0 1 373.266 60.734 Q 371.063 63.125 368.688 64.438 Q 366.313 65.75 363.594 65.75 Q 362.563 65.75 361.625 65.547 A 11.468 11.468 0 0 1 360.755 65.324 A 8.364 8.364 0 0 1 359.969 65.047 A 6.713 6.713 0 0 1 359.469 64.818 Q 359.23 64.695 359.033 64.565 A 3.32 3.32 0 0 1 358.813 64.406 A 2.182 2.182 0 0 1 358.632 64.249 Q 358.453 64.074 358.399 63.916 A 0.412 0.412 0 0 1 358.375 63.781 A 1.275 1.275 0 0 1 358.405 63.524 Q 358.481 63.16 358.75 62.609 A 12.79 12.79 0 0 1 359.28 61.64 A 15.239 15.239 0 0 1 359.656 61.047 A 15.364 15.364 0 0 1 360.551 59.834 A 13.702 13.702 0 0 1 360.766 59.578 A 6.713 6.713 0 0 1 361.08 59.236 Q 361.467 58.845 361.781 58.688 Q 363.281 59.813 364.391 60.156 A 7.612 7.612 0 0 0 366.656 60.5 A 5.096 5.096 0 0 0 368.992 59.906 Q 369.749 59.52 370.503 58.882 A 11.223 11.223 0 0 0 371.188 58.25 Q 372.815 56.623 374.54 53.999 A 49.624 49.624 0 0 0 375.875 51.844 A 95.818 95.818 0 0 0 375.523 49.898 A 130.471 130.471 0 0 0 375.094 47.75 A 240.948 240.948 0 0 0 374.214 43.705 A 265.296 265.296 0 0 0 374.078 43.109 Q 373.531 40.719 372.922 38.344 A 201.492 201.492 0 0 0 372.316 36.039 A 168.506 168.506 0 0 0 371.719 33.875 A 96.194 96.194 0 0 0 371.133 31.887 A 70.237 70.237 0 0 0 370.563 30.109 Q 370.026 28.514 369.603 27.559 A 13.468 13.468 0 0 0 369.563 27.469 A 18.754 18.754 0 0 0 369.227 26.762 Q 368.74 25.792 368.37 25.417 A 1.584 1.584 0 0 0 368.344 25.391 Q 367.959 25.018 367.556 24.932 A 1.164 1.164 0 0 0 367.313 24.906 Q 367.078 24.906 366.679 24.983 A 8.438 8.438 0 0 0 366.516 25.016 Q 366 25.125 365.5 25.281 A 18.988 18.988 0 0 0 364.733 25.501 A 22.689 22.689 0 0 0 364.25 25.656 Z M 89.438 46 L 90.031 47.469 A 73.29 73.29 0 0 1 87.966 48.664 A 64.715 64.715 0 0 1 87.297 49.031 A 48.59 48.59 0 0 1 86.012 49.703 A 37.59 37.59 0 0 1 84.813 50.281 A 22.756 22.756 0 0 1 83.843 50.701 Q 83.246 50.942 82.719 51.109 Q 81.781 51.406 81.125 51.406 A 1.915 1.915 0 0 1 79.624 50.731 A 2.666 2.666 0 0 1 79.391 50.422 A 3.573 3.573 0 0 1 78.953 49.426 Q 78.826 48.972 78.779 48.431 A 7.789 7.789 0 0 1 78.75 47.75 A 5.202 5.202 0 0 1 78.762 47.421 Q 78.798 46.864 78.939 45.862 A 50.151 50.151 0 0 1 78.953 45.766 A 162.301 162.301 0 0 1 79.149 44.438 Q 79.286 43.53 79.453 42.484 Q 79.75 40.625 80.109 38.531 Q 80.469 36.438 80.766 34.531 A 183.582 183.582 0 0 0 81.031 32.773 Q 81.161 31.883 81.266 31.094 Q 81.419 29.939 81.456 29.264 A 7.078 7.078 0 0 0 81.469 28.875 A 17.308 17.308 0 0 0 81.441 27.863 Q 81.385 26.899 81.21 26.288 A 2.758 2.758 0 0 0 81.031 25.813 Q 80.594 24.938 79.344 24.938 A 1.236 1.236 0 0 0 79.108 24.964 Q 78.707 25.043 78.016 25.359 Q 77.094 25.781 75.938 26.656 Q 74.858 27.473 73.683 28.685 A 28.217 28.217 0 0 0 73.516 28.859 A 15.711 15.711 0 0 0 72.013 30.709 A 19.333 19.333 0 0 0 71.188 32 Q 70.281 33.5 69.75 35.594 A 50.788 50.788 0 0 0 69.352 37.296 Q 69.02 38.824 68.688 40.719 Q 68.438 42.125 68.281 43.25 A 40.196 40.196 0 0 0 68.145 44.34 A 32.589 32.589 0 0 0 68.047 45.359 Q 67.969 46.344 67.953 47.203 A 31.61 31.61 0 0 0 67.948 47.778 A 32.492 32.492 0 0 0 67.969 48.938 A 10.635 10.635 0 0 1 67.744 49.055 Q 67.375 49.242 66.813 49.5 Q 66.063 49.844 65.266 50.188 A 133.09 133.09 0 0 0 64.106 50.694 A 118.648 118.648 0 0 0 63.734 50.859 A 23.125 23.125 0 0 0 63.39 51.017 Q 62.906 51.242 62.625 51.406 L 61.531 50.375 Q 61.969 48.281 62.391 45.938 Q 62.813 43.594 63.188 41.234 Q 63.563 38.875 63.891 36.625 A 212.61 212.61 0 0 0 64.195 34.461 A 165.107 165.107 0 0 0 64.453 32.469 Q 64.655 30.831 64.787 29.527 A 91.643 91.643 0 0 0 64.828 29.109 A 50.474 50.474 0 0 0 64.89 28.429 Q 64.968 27.482 64.969 26.944 A 7.286 7.286 0 0 0 64.969 26.937 Q 64.969 26.252 64.898 25.836 A 2.941 2.941 0 0 0 64.891 25.797 A 2.923 2.923 0 0 0 64.839 25.566 Q 64.771 25.315 64.672 25.172 A 0.706 0.706 0 0 0 64.512 25.004 A 0.618 0.618 0 0 0 64.313 24.906 Q 64.094 24.844 63.813 24.844 A 1.843 1.843 0 0 0 63.633 24.854 Q 63.377 24.879 62.984 24.969 Q 62.438 25.094 61.906 25.25 A 317.987 317.987 0 0 0 61.258 25.445 A 392.779 392.779 0 0 0 60.563 25.656 L 60.063 24.125 Q 61.375 23.563 62.844 22.984 A 102.274 102.274 0 0 1 64.273 22.434 A 84.868 84.868 0 0 1 65.625 21.937 Q 66.681 21.56 67.535 21.294 A 31.596 31.596 0 0 1 67.938 21.172 A 14.835 14.835 0 0 1 68.387 21.045 Q 69.036 20.875 69.344 20.875 A 2.22 2.22 0 0 1 69.599 20.889 Q 69.729 20.904 69.837 20.936 A 0.927 0.927 0 0 1 70.031 21.016 A 0.724 0.724 0 0 1 70.248 21.207 Q 70.316 21.295 70.371 21.411 A 1.549 1.549 0 0 1 70.422 21.531 A 2.183 2.183 0 0 1 70.501 21.796 Q 70.577 22.121 70.609 22.594 Q 70.656 23.281 70.656 24.406 A 9.064 9.064 0 0 1 70.654 24.589 Q 70.648 24.879 70.625 25.266 Q 70.594 25.781 70.563 26.375 A 19.983 19.983 0 0 1 70.469 27.531 A 54.388 54.388 0 0 0 70.44 27.801 Q 70.4 28.175 70.377 28.451 A 18.176 18.176 0 0 0 70.375 28.469 A 31.034 31.034 0 0 1 72.283 26.397 A 24.576 24.576 0 0 1 73.781 25.031 A 25.284 25.284 0 0 1 75.585 23.649 A 19.444 19.444 0 0 1 77.141 22.672 A 16.362 16.362 0 0 1 78.944 21.793 A 12.91 12.91 0 0 1 80.328 21.313 Q 81.875 20.875 83.281 20.875 A 6.064 6.064 0 0 1 84.199 20.941 A 4.62 4.62 0 0 1 85.016 21.141 A 2.886 2.886 0 0 1 86.297 22.016 Q 86.813 22.625 87.078 23.641 A 7.188 7.188 0 0 1 87.24 24.47 Q 87.303 24.926 87.328 25.453 A 15.023 15.023 0 0 1 87.344 26.156 A 15.077 15.077 0 0 1 87.315 27.047 Q 87.291 27.447 87.248 27.896 A 31.924 31.924 0 0 1 87.141 28.844 A 72.848 72.848 0 0 1 86.844 30.921 A 89.104 89.104 0 0 1 86.625 32.25 A 297.232 297.232 0 0 1 86.042 35.518 A 329.299 329.299 0 0 1 85.953 36 A 606.063 606.063 0 0 0 85.606 37.891 A 519.345 519.345 0 0 0 85.281 39.688 A 104.019 104.019 0 0 0 84.996 41.359 A 76.811 76.811 0 0 0 84.766 42.875 A 28.304 28.304 0 0 0 84.659 43.719 Q 84.569 44.528 84.563 45.106 A 7.871 7.871 0 0 0 84.563 45.187 Q 84.563 45.988 84.722 46.407 A 1.02 1.02 0 0 0 84.844 46.641 A 0.913 0.913 0 0 0 85.469 47.015 A 1.396 1.396 0 0 0 85.688 47.031 Q 86.384 47.031 87.212 46.797 A 7.903 7.903 0 0 0 87.266 46.781 A 14.792 14.792 0 0 0 87.91 46.576 Q 88.576 46.349 89.438 46 Z M 301.219 46 L 301.813 47.469 A 73.29 73.29 0 0 1 299.747 48.664 A 64.715 64.715 0 0 1 299.078 49.031 A 48.59 48.59 0 0 1 297.793 49.703 A 37.59 37.59 0 0 1 296.594 50.281 A 22.756 22.756 0 0 1 295.624 50.701 Q 295.027 50.942 294.5 51.109 Q 293.563 51.406 292.906 51.406 A 1.915 1.915 0 0 1 291.406 50.731 A 2.666 2.666 0 0 1 291.172 50.422 A 3.573 3.573 0 0 1 290.734 49.426 Q 290.607 48.972 290.56 48.431 A 7.789 7.789 0 0 1 290.531 47.75 A 5.202 5.202 0 0 1 290.544 47.421 Q 290.58 46.864 290.721 45.862 A 50.151 50.151 0 0 1 290.734 45.766 A 162.301 162.301 0 0 1 290.93 44.438 Q 291.067 43.53 291.234 42.484 Q 291.531 40.625 291.891 38.531 Q 292.25 36.438 292.547 34.531 A 183.582 183.582 0 0 0 292.813 32.773 Q 292.942 31.883 293.047 31.094 Q 293.2 29.939 293.238 29.264 A 7.078 7.078 0 0 0 293.25 28.875 A 17.308 17.308 0 0 0 293.223 27.863 Q 293.166 26.899 292.992 26.288 A 2.758 2.758 0 0 0 292.813 25.813 Q 292.375 24.938 291.125 24.938 A 1.236 1.236 0 0 0 290.89 24.964 Q 290.488 25.043 289.797 25.359 Q 288.875 25.781 287.719 26.656 Q 286.639 27.473 285.465 28.685 A 28.217 28.217 0 0 0 285.297 28.859 A 15.711 15.711 0 0 0 283.794 30.709 A 19.333 19.333 0 0 0 282.969 32 Q 282.063 33.5 281.531 35.594 A 50.788 50.788 0 0 0 281.133 37.296 Q 280.801 38.824 280.469 40.719 Q 280.219 42.125 280.063 43.25 A 40.196 40.196 0 0 0 279.926 44.34 A 32.589 32.589 0 0 0 279.828 45.359 Q 279.75 46.344 279.734 47.203 A 31.61 31.61 0 0 0 279.729 47.778 A 32.492 32.492 0 0 0 279.75 48.938 A 10.635 10.635 0 0 1 279.525 49.055 Q 279.156 49.242 278.594 49.5 Q 277.844 49.844 277.047 50.188 A 133.09 133.09 0 0 0 275.887 50.694 A 118.648 118.648 0 0 0 275.516 50.859 A 23.125 23.125 0 0 0 275.171 51.017 Q 274.688 51.242 274.406 51.406 L 273.313 50.375 Q 273.75 48.281 274.172 45.938 Q 274.594 43.594 274.969 41.234 Q 275.344 38.875 275.672 36.625 A 212.61 212.61 0 0 0 275.977 34.461 A 165.107 165.107 0 0 0 276.234 32.469 Q 276.436 30.831 276.568 29.527 A 91.643 91.643 0 0 0 276.609 29.109 A 50.474 50.474 0 0 0 276.671 28.429 Q 276.75 27.482 276.75 26.944 A 7.286 7.286 0 0 0 276.75 26.937 Q 276.75 26.252 276.679 25.836 A 2.941 2.941 0 0 0 276.672 25.797 A 2.923 2.923 0 0 0 276.62 25.566 Q 276.552 25.315 276.453 25.172 A 0.706 0.706 0 0 0 276.293 25.004 A 0.618 0.618 0 0 0 276.094 24.906 Q 275.875 24.844 275.594 24.844 A 1.843 1.843 0 0 0 275.415 24.854 Q 275.159 24.879 274.766 24.969 Q 274.219 25.094 273.688 25.25 A 317.987 317.987 0 0 0 273.039 25.445 A 392.779 392.779 0 0 0 272.344 25.656 L 271.844 24.125 Q 273.156 23.563 274.625 22.984 A 102.274 102.274 0 0 1 276.055 22.434 A 84.868 84.868 0 0 1 277.406 21.937 Q 278.462 21.56 279.316 21.294 A 31.596 31.596 0 0 1 279.719 21.172 A 14.835 14.835 0 0 1 280.168 21.045 Q 280.817 20.875 281.125 20.875 A 2.22 2.22 0 0 1 281.38 20.889 Q 281.51 20.904 281.619 20.936 A 0.927 0.927 0 0 1 281.813 21.016 A 0.724 0.724 0 0 1 282.029 21.207 Q 282.097 21.295 282.152 21.411 A 1.549 1.549 0 0 1 282.203 21.531 A 2.183 2.183 0 0 1 282.282 21.796 Q 282.358 22.121 282.391 22.594 Q 282.438 23.281 282.438 24.406 A 9.064 9.064 0 0 1 282.436 24.589 Q 282.43 24.879 282.406 25.266 Q 282.375 25.781 282.344 26.375 A 19.983 19.983 0 0 1 282.25 27.531 A 54.388 54.388 0 0 0 282.221 27.801 Q 282.181 28.175 282.158 28.451 A 18.176 18.176 0 0 0 282.156 28.469 A 31.034 31.034 0 0 1 284.065 26.397 A 24.576 24.576 0 0 1 285.563 25.031 A 25.284 25.284 0 0 1 287.367 23.649 A 19.444 19.444 0 0 1 288.922 22.672 A 16.362 16.362 0 0 1 290.726 21.793 A 12.91 12.91 0 0 1 292.109 21.313 Q 293.656 20.875 295.063 20.875 A 6.064 6.064 0 0 1 295.981 20.941 A 4.62 4.62 0 0 1 296.797 21.141 A 2.886 2.886 0 0 1 298.078 22.016 Q 298.594 22.625 298.859 23.641 A 7.188 7.188 0 0 1 299.021 24.47 Q 299.085 24.926 299.109 25.453 A 15.023 15.023 0 0 1 299.125 26.156 A 15.077 15.077 0 0 1 299.096 27.047 Q 299.073 27.447 299.029 27.896 A 31.924 31.924 0 0 1 298.922 28.844 A 72.848 72.848 0 0 1 298.625 30.921 A 89.104 89.104 0 0 1 298.406 32.25 A 297.232 297.232 0 0 1 297.824 35.518 A 329.299 329.299 0 0 1 297.734 36 A 606.063 606.063 0 0 0 297.387 37.891 A 519.345 519.345 0 0 0 297.063 39.688 A 104.019 104.019 0 0 0 296.777 41.359 A 76.811 76.811 0 0 0 296.547 42.875 A 28.304 28.304 0 0 0 296.44 43.719 Q 296.35 44.528 296.344 45.106 A 7.871 7.871 0 0 0 296.344 45.187 Q 296.344 45.988 296.503 46.407 A 1.02 1.02 0 0 0 296.625 46.641 A 0.913 0.913 0 0 0 297.25 47.015 A 1.396 1.396 0 0 0 297.469 47.031 Q 298.165 47.031 298.993 46.797 A 7.903 7.903 0 0 0 299.047 46.781 A 14.792 14.792 0 0 0 299.691 46.576 Q 300.357 46.349 301.219 46 Z M 349.375 46.094 L 350 47.563 A 83.003 83.003 0 0 1 348.389 48.647 Q 346.741 49.728 345.508 50.4 A 24.578 24.578 0 0 1 345.469 50.422 Q 344.279 51.068 343.292 51.29 A 4.47 4.47 0 0 1 342.313 51.406 Q 341.514 51.406 340.737 50.737 A 4.485 4.485 0 0 1 340.469 50.484 A 7.659 7.659 0 0 1 340.448 50.463 Q 339.552 49.544 338.656 48.016 A 28.576 28.576 0 0 1 337.758 46.352 A 38.777 38.777 0 0 1 336.875 44.453 Q 336 42.438 335.125 40.219 A 270.064 270.064 0 0 1 333.993 41.741 Q 332.986 43.086 331.766 44.688 A 94.359 94.359 0 0 0 329.306 48.074 A 112.828 112.828 0 0 0 327.813 50.281 Q 327.426 50.324 326.921 50.397 A 48.93 48.93 0 0 0 326.438 50.469 A 55.169 55.169 0 0 0 324.781 50.75 A 57.088 57.088 0 0 0 323.141 51.078 Q 322.344 51.25 321.75 51.406 L 320.969 50.25 A 90.991 90.991 0 0 0 322.441 48.91 A 124.557 124.557 0 0 0 324.047 47.391 Q 325.719 45.781 327.422 44.016 Q 329.125 42.25 330.781 40.422 A 158.986 158.986 0 0 0 332.375 38.637 A 131.436 131.436 0 0 0 333.844 36.937 Q 332.938 34.625 332.078 32.453 Q 331.276 30.425 330.514 28.834 A 40.18 40.18 0 0 0 330.406 28.609 A 21.037 21.037 0 0 0 329.799 27.448 Q 329.492 26.905 329.187 26.457 A 9.831 9.831 0 0 0 328.797 25.922 Q 328 24.906 327.25 24.906 A 1.972 1.972 0 0 0 327.087 24.914 Q 326.809 24.938 326.328 25.031 A 42.903 42.903 0 0 0 325.341 25.236 A 48.122 48.122 0 0 0 325 25.312 A 92.817 92.817 0 0 0 323.746 25.611 A 104.298 104.298 0 0 0 323.313 25.719 L 322.813 24.188 A 312.774 312.774 0 0 0 325.406 23 A 102.199 102.199 0 0 1 326.641 22.438 A 79.082 79.082 0 0 1 327.781 21.938 Q 328.619 21.579 329.3 21.32 A 24.195 24.195 0 0 1 329.703 21.172 A 9.677 9.677 0 0 1 330.089 21.042 Q 330.439 20.933 330.681 20.895 A 1.479 1.479 0 0 1 330.906 20.875 Q 331.688 20.875 332.528 21.83 A 5.704 5.704 0 0 1 332.594 21.906 A 10.924 10.924 0 0 1 333.252 22.772 Q 333.803 23.57 334.359 24.625 Q 335.236 26.286 336.143 28.431 A 67.592 67.592 0 0 1 336.172 28.5 A 162.742 162.742 0 0 1 337.887 32.739 A 177.024 177.024 0 0 1 338 33.031 Q 339.219 31.563 340.313 30.094 A 137.848 137.848 0 0 0 341.329 28.712 Q 341.822 28.033 342.25 27.422 Q 343.094 26.219 343.594 25.375 A 13.601 13.601 0 0 0 343.764 25.081 Q 344.094 24.49 344.094 24.313 A 1.346 1.346 0 0 0 344.054 23.981 A 1.141 1.141 0 0 0 343.969 23.75 Q 343.844 23.5 343.5 23.375 A 1.815 1.815 0 0 0 343.244 23.305 Q 342.99 23.253 342.641 23.238 A 6.326 6.326 0 0 0 342.531 23.234 A 7.348 7.348 0 0 0 342.369 23.232 Q 341.966 23.231 341.427 23.269 A 23.218 23.218 0 0 0 340.906 23.313 L 340.813 21.719 Q 341.844 21.5 342.859 21.344 A 65.286 65.286 0 0 1 343.848 21.199 A 54.667 54.667 0 0 1 344.781 21.078 A 33.541 33.541 0 0 1 345.648 20.984 A 25.063 25.063 0 0 1 346.438 20.922 Q 347.188 20.875 347.656 20.875 A 10.103 10.103 0 0 1 347.68 20.875 Q 349.255 20.879 349.906 21.375 A 2.064 2.064 0 0 1 350.252 21.703 Q 350.563 22.08 350.563 22.531 Q 350.563 23.036 350.083 23.837 A 8.087 8.087 0 0 1 349.828 24.234 A 19.612 19.612 0 0 1 349.302 24.966 Q 348.649 25.835 347.672 26.984 Q 346.694 28.134 345.385 29.564 A 157.02 157.02 0 0 1 344.125 30.922 A 9955.162 9955.162 0 0 0 342.14 33.039 Q 341.122 34.124 339.988 35.335 A 17406.269 17406.269 0 0 0 339.219 36.156 A 158.234 158.234 0 0 0 340.484 39.294 A 142.109 142.109 0 0 0 340.906 40.297 A 57.025 57.025 0 0 0 341.687 42.054 Q 342.069 42.875 342.441 43.594 A 34.057 34.057 0 0 0 342.547 43.797 A 20.075 20.075 0 0 0 343.132 44.838 Q 343.622 45.649 344.094 46.219 A 4.079 4.079 0 0 0 344.476 46.626 Q 345.021 47.125 345.531 47.125 A 5.894 5.894 0 0 0 346.159 47.089 Q 346.65 47.036 347.234 46.906 Q 348.121 46.709 349.146 46.208 A 12.76 12.76 0 0 0 349.375 46.094 Z M 27.594 46.156 L 28.031 47.625 A 70.799 70.799 0 0 1 26.18 48.828 Q 25.33 49.36 24.574 49.793 A 31.99 31.99 0 0 1 23.453 50.406 Q 21.845 51.243 20.795 51.38 A 3.018 3.018 0 0 1 20.406 51.406 A 1.522 1.522 0 0 1 19.773 51.263 Q 19.566 51.169 19.358 51.013 A 2.84 2.84 0 0 1 19.281 50.953 A 2.346 2.346 0 0 1 18.893 50.547 Q 18.562 50.113 18.281 49.422 Q 17.984 48.689 17.752 47.646 A 21.01 21.01 0 0 1 17.547 46.594 A 21.443 21.443 0 0 1 17.358 45.162 Q 17.284 44.431 17.239 43.591 A 47.015 47.015 0 0 1 17.188 42.219 A 37.85 37.85 0 0 1 15.162 45.353 A 34.105 34.105 0 0 1 14.813 45.828 A 25.537 25.537 0 0 1 13.391 47.571 A 20.274 20.274 0 0 1 12.266 48.734 A 14.028 14.028 0 0 1 10.879 49.9 A 10.849 10.849 0 0 1 9.641 50.687 Q 8.313 51.406 7.063 51.406 Q 5.939 51.406 4.707 50.768 A 7.096 7.096 0 0 1 4.703 50.766 A 6.08 6.08 0 0 1 3.391 49.834 A 8.446 8.446 0 0 1 2.422 48.766 A 9.354 9.354 0 0 1 1.519 47.326 Q 1.053 46.417 0.688 45.297 Q 0.092 43.47 0.012 41.045 A 23.252 23.252 0 0 1 0 40.281 Q 0 37.813 0.563 35.484 Q 1.125 33.156 2.234 31.047 Q 3.344 28.938 5 27.109 A 19.98 19.98 0 0 1 8.195 24.28 A 22.671 22.671 0 0 1 8.875 23.812 A 19.505 19.505 0 0 1 10.214 23.028 A 22.768 22.768 0 0 1 10.781 22.734 A 24.313 24.313 0 0 1 12.906 21.797 Q 14 21.375 15.109 21.125 A 10.192 10.192 0 0 1 16.598 20.899 A 8.835 8.835 0 0 1 17.25 20.875 Q 17.838 20.875 18.495 21.207 A 4.201 4.201 0 0 1 18.578 21.25 A 10.924 10.924 0 0 1 19.552 21.839 A 12.993 12.993 0 0 1 20 22.156 A 275.892 275.892 0 0 0 20.641 18 Q 20.938 15.969 21.172 14.203 A 114.412 114.412 0 0 0 21.38 12.548 Q 21.473 11.763 21.542 11.061 A 69.035 69.035 0 0 0 21.547 11.016 Q 21.641 10.06 21.672 9.338 A 15.253 15.253 0 0 0 21.688 8.688 A 7.733 7.733 0 0 0 21.677 8.267 Q 21.653 7.837 21.578 7.547 A 2.124 2.124 0 0 0 21.501 7.305 Q 21.453 7.183 21.394 7.087 A 0.895 0.895 0 0 0 21.266 6.922 A 1.058 1.058 0 0 0 21.033 6.744 A 0.899 0.899 0 0 0 20.813 6.656 A 2.125 2.125 0 0 0 20.394 6.596 A 2.449 2.449 0 0 0 20.281 6.594 A 1.64 1.64 0 0 0 20.102 6.605 Q 19.926 6.624 19.685 6.678 A 7.603 7.603 0 0 0 19.453 6.734 Q 18.906 6.875 18.375 7.031 A 164.253 164.253 0 0 1 17.719 7.227 A 215.078 215.078 0 0 1 17 7.437 L 16.594 5.906 A 69.139 69.139 0 0 1 19.438 4.656 A 67.718 67.718 0 0 1 20.832 4.098 A 54.426 54.426 0 0 1 22.141 3.609 A 40.794 40.794 0 0 1 23.048 3.296 Q 23.77 3.057 24.375 2.891 A 13.903 13.903 0 0 1 24.826 2.774 Q 25.247 2.674 25.534 2.641 A 2.194 2.194 0 0 1 25.781 2.625 A 2.49 2.49 0 0 1 26.321 2.68 Q 26.865 2.801 27.188 3.188 Q 27.585 3.665 27.646 4.772 A 7.658 7.658 0 0 1 27.656 5.188 A 17.679 17.679 0 0 1 27.635 6.019 Q 27.589 6.996 27.442 8.302 A 55.409 55.409 0 0 1 27.438 8.344 Q 27.22 10.274 26.862 12.653 A 184.962 184.962 0 0 1 26.859 12.672 A 278.816 278.816 0 0 1 26.477 15.141 A 336.538 336.538 0 0 1 26.047 17.766 A 669.736 669.736 0 0 1 25.109 23.219 A 865.857 865.857 0 0 0 24.172 28.641 A 409.108 409.108 0 0 0 23.742 31.223 A 328.378 328.378 0 0 0 23.359 33.625 Q 23.051 35.612 22.846 37.23 A 88.694 88.694 0 0 0 22.781 37.75 Q 22.563 39.563 22.563 40.625 A 45.47 45.47 0 0 0 22.587 42.169 Q 22.64 43.715 22.806 44.737 A 8.125 8.125 0 0 0 22.953 45.453 A 5.377 5.377 0 0 0 23.118 45.987 Q 23.318 46.522 23.58 46.765 A 0.695 0.695 0 0 0 24.063 46.969 Q 24.875 46.969 25.688 46.797 A 7.419 7.419 0 0 0 26.336 46.626 Q 26.91 46.449 27.594 46.156 Z M 430.844 21.531 L 431.563 22.594 A 79.12 79.12 0 0 0 428.654 25.925 A 64.17 64.17 0 0 0 427.016 28 Q 425.031 30.625 423.172 33.313 Q 421.313 36 419.375 38.828 Q 417.438 41.656 414.969 44.813 Q 415.02 44.787 415.175 44.741 A 6.591 6.591 0 0 1 415.25 44.719 Q 415.451 44.643 415.713 44.568 A 9.545 9.545 0 0 1 415.844 44.531 A 5.489 5.489 0 0 1 416.211 44.445 Q 416.403 44.407 416.618 44.376 A 8.409 8.409 0 0 1 416.625 44.375 A 6.367 6.367 0 0 1 417.473 44.313 A 6.98 6.98 0 0 1 417.531 44.312 A 3.743 3.743 0 0 1 417.984 44.343 Q 418.49 44.405 419.172 44.594 A 74.503 74.503 0 0 1 420.227 44.895 A 93.432 93.432 0 0 1 421.359 45.234 Q 422.531 45.594 423.734 45.875 A 11.308 11.308 0 0 0 424.895 46.086 A 8.607 8.607 0 0 0 425.969 46.156 A 2.094 2.094 0 0 0 426.195 46.143 Q 426.318 46.13 426.456 46.103 A 4.366 4.366 0 0 0 426.641 46.063 Q 427.031 45.969 427.5 45.625 A 3.952 3.952 0 0 0 427.863 45.321 Q 428.038 45.157 428.222 44.952 A 8.842 8.842 0 0 0 428.516 44.609 A 7.336 7.336 0 0 0 428.901 44.087 Q 429.277 43.529 429.688 42.75 L 431.031 43.531 Q 430.156 45.469 429.453 46.844 A 12.936 12.936 0 0 1 428.832 47.933 Q 428.408 48.595 427.953 49.094 Q 427.156 49.969 426.109 50.359 Q 425.247 50.681 424.056 50.738 A 11.036 11.036 0 0 1 423.531 50.75 Q 422.063 50.75 420.703 50.422 A 39.539 39.539 0 0 1 418.577 49.847 A 35.215 35.215 0 0 1 418.109 49.703 A 243.975 243.975 0 0 0 416.914 49.328 A 198.168 198.168 0 0 0 415.797 48.984 A 8.005 8.005 0 0 0 414.754 48.738 A 6.054 6.054 0 0 0 413.781 48.656 Q 413.281 48.656 412.719 48.813 Q 412.235 48.947 411.648 49.196 A 13.107 13.107 0 0 0 411.453 49.281 A 27.299 27.299 0 0 0 410.802 49.582 Q 410.471 49.739 410.106 49.922 A 47.17 47.17 0 0 0 409.859 50.047 Q 409.247 50.358 408.494 50.736 A 448.031 448.031 0 0 1 407.781 51.094 L 406.938 49.875 A 89 89 0 0 0 408.921 47.403 A 106.168 106.168 0 0 0 410.141 45.797 Q 411.781 43.594 413.406 41.297 Q 415.031 39 416.594 36.719 A 1140.542 1140.542 0 0 1 418.117 34.5 A 963.365 963.365 0 0 1 419.563 32.406 A 286.04 286.04 0 0 1 420.918 30.465 A 217.851 217.851 0 0 1 422.172 28.703 A 65.164 65.164 0 0 1 422.755 27.905 Q 423.602 26.766 424.281 25.969 L 415.594 25.969 A 6.096 6.096 0 0 0 415.062 25.991 Q 414.782 26.015 414.54 26.067 A 3.18 3.18 0 0 0 414.313 26.125 A 2.18 2.18 0 0 0 413.543 26.538 A 2.697 2.697 0 0 0 413.344 26.719 A 3.21 3.21 0 0 0 413.009 27.118 Q 412.857 27.329 412.712 27.589 A 6.953 6.953 0 0 0 412.516 27.969 A 14.479 14.479 0 0 0 412.238 28.586 Q 411.964 29.232 411.656 30.094 L 410.188 29.75 A 105.576 105.576 0 0 1 410.793 27.051 A 82.828 82.828 0 0 1 411.422 24.578 A 90.839 90.839 0 0 0 411.718 23.462 Q 412.125 21.883 412.313 20.875 A 23.501 23.501 0 0 1 412.786 21.005 Q 413.205 21.125 413.703 21.281 Q 414.393 21.498 415.306 21.527 A 9.062 9.062 0 0 0 415.594 21.531 L 430.844 21.531 Z M 167.063 7.438 L 166.625 5.906 A 51.346 51.346 0 0 1 168.729 4.986 A 58.282 58.282 0 0 1 169.469 4.687 A 63.232 63.232 0 0 1 171.283 4 A 52.061 52.061 0 0 1 172.313 3.641 A 50.383 50.383 0 0 1 173.432 3.277 Q 173.944 3.118 174.403 2.989 A 28.156 28.156 0 0 1 174.703 2.906 A 16.36 16.36 0 0 1 175.182 2.785 Q 175.858 2.625 176.188 2.625 Q 176.744 2.625 177.088 2.837 A 1.047 1.047 0 0 1 177.438 3.188 A 1.684 1.684 0 0 1 177.604 3.573 Q 177.732 3.993 177.768 4.649 A 9.965 9.965 0 0 1 177.781 5.187 A 14.811 14.811 0 0 1 177.766 5.83 Q 177.734 6.574 177.632 7.574 A 47.957 47.957 0 0 1 177.625 7.641 Q 177.469 9.156 177.219 11.094 A 229.552 229.552 0 0 1 176.949 13.109 A 288.174 288.174 0 0 1 176.641 15.281 A 430.585 430.585 0 0 1 176.031 19.326 A 472.319 472.319 0 0 1 175.938 19.922 Q 175.563 22.313 175.172 24.75 A 424.73 424.73 0 0 0 174.448 29.428 A 408.022 408.022 0 0 0 174.438 29.5 Q 175.891 27.248 177.371 25.672 A 18.795 18.795 0 0 1 177.656 25.375 A 25.46 25.46 0 0 1 179.051 24.051 Q 179.931 23.281 180.766 22.719 A 14.776 14.776 0 0 1 181.938 22.002 Q 182.549 21.668 183.122 21.444 A 8.006 8.006 0 0 1 183.531 21.297 A 10.253 10.253 0 0 1 184.426 21.044 Q 185.157 20.875 185.75 20.875 A 4.838 4.838 0 0 1 188.203 21.531 A 5.405 5.405 0 0 1 189.543 22.635 A 7.065 7.065 0 0 1 190.188 23.484 Q 191.031 24.781 191.5 26.688 A 14.546 14.546 0 0 1 191.83 28.598 Q 191.94 29.615 191.94 30.756 A 24.207 24.207 0 0 1 191.938 31.062 A 23.83 23.83 0 0 1 190.986 37.223 A 26.787 26.787 0 0 1 190.828 37.75 A 21.048 21.048 0 0 1 188.42 42.871 A 24.78 24.78 0 0 1 187.469 44.25 Q 186.406 45.656 185.094 46.953 Q 183.781 48.25 182.219 49.234 A 15.361 15.361 0 0 1 178.875 50.812 A 11.78 11.78 0 0 1 175.125 51.406 Q 174.586 51.406 173.92 51.185 A 6.316 6.316 0 0 1 173.625 51.078 Q 172.781 50.75 171.906 50.156 A 13.303 13.303 0 0 1 170.611 49.151 A 15.342 15.342 0 0 1 170.188 48.766 Q 169.344 47.969 168.688 47.047 A 9.27 9.27 0 0 1 167.625 45.109 A 5.643 5.643 0 0 1 167.26 43.736 A 4.997 4.997 0 0 1 167.219 43.094 A 9.591 9.591 0 0 1 167.231 42.631 Q 167.257 42.101 167.336 41.336 A 51.442 51.442 0 0 1 167.422 40.562 Q 167.596 39.085 167.852 37.205 A 295.434 295.434 0 0 1 167.938 36.578 A 340.758 340.758 0 0 1 168.273 34.207 A 441.301 441.301 0 0 1 168.656 31.625 A 922.771 922.771 0 0 1 169.5 26.156 A 723.006 723.006 0 0 0 170.344 20.656 A 363.992 363.992 0 0 0 170.727 18.031 A 290.446 290.446 0 0 0 171.063 15.594 A 263.843 263.843 0 0 0 171.315 13.648 Q 171.464 12.464 171.578 11.453 Q 171.746 9.972 171.775 9.054 A 11.475 11.475 0 0 0 171.781 8.688 A 5.42 5.42 0 0 0 171.766 8.267 Q 171.732 7.837 171.625 7.547 A 2.027 2.027 0 0 0 171.507 7.283 Q 171.433 7.148 171.345 7.046 A 0.996 0.996 0 0 0 171.219 6.922 A 1.387 1.387 0 0 0 170.928 6.738 A 1.177 1.177 0 0 0 170.688 6.656 Q 170.406 6.594 170.125 6.594 A 1.603 1.603 0 0 0 169.937 6.606 Q 169.736 6.63 169.459 6.7 A 6.999 6.999 0 0 0 169.328 6.734 Q 168.813 6.875 168.313 7.031 A 76.654 76.654 0 0 0 167.703 7.227 A 89.754 89.754 0 0 0 167.063 7.437 Z M 429.781 59.969 L 428.844 58.25 A 20.12 20.12 0 0 0 431.131 56.231 A 26.862 26.862 0 0 0 432.969 54.141 A 30.995 30.995 0 0 0 435.13 51.034 A 39.942 39.942 0 0 0 436.688 48.234 Q 438.406 44.844 439.703 40.625 A 56.094 56.094 0 0 0 441.097 35.043 A 69.376 69.376 0 0 0 441.719 31.375 Q 442.344 26.844 442.344 22.438 Q 442.344 18.031 441.734 14.141 A 37.648 37.648 0 0 0 440.79 9.763 A 30.649 30.649 0 0 0 439.891 7.047 Q 438.656 3.844 436.813 1.719 L 438.219 0 Q 441.219 1.688 443.313 4.781 A 24.279 24.279 0 0 1 445.77 9.486 A 29.506 29.506 0 0 1 446.609 11.922 A 36.221 36.221 0 0 1 447.821 17.819 A 43.582 43.582 0 0 1 448.078 20.719 A 47.714 47.714 0 0 1 448.152 23.383 A 51.43 51.43 0 0 1 447.656 30.437 A 51.045 51.045 0 0 1 445.512 39.652 A 47.312 47.312 0 0 1 445.313 40.234 Q 443.688 44.875 441.359 48.719 Q 439.031 52.563 436.094 55.453 A 24.746 24.746 0 0 1 431.899 58.798 A 21.639 21.639 0 0 1 429.781 59.969 Z M 324.469 0 L 325.344 1.719 A 18.917 18.917 0 0 0 323.25 3.559 Q 322.251 4.569 321.281 5.81 A 30.183 30.183 0 0 0 321.219 5.891 Q 319.219 8.469 317.516 11.938 A 46.408 46.408 0 0 0 315.636 16.354 A 58.433 58.433 0 0 0 314.516 19.719 Q 313.219 24.031 312.531 29.031 A 62.872 62.872 0 0 0 311.878 37.394 A 57.774 57.774 0 0 0 311.875 37.937 Q 311.875 42.281 312.5 46.078 A 36.674 36.674 0 0 0 313.457 50.35 A 29.934 29.934 0 0 0 314.359 53 A 20.741 20.741 0 0 0 315.746 55.875 A 15.823 15.823 0 0 0 317.438 58.25 L 316.031 59.969 A 14.863 14.863 0 0 1 311.394 55.928 A 17.511 17.511 0 0 1 310.922 55.281 A 23.58 23.58 0 0 1 308.358 50.448 A 28.293 28.293 0 0 1 307.609 48.297 Q 306.406 44.344 306.141 39.656 Q 305.875 34.969 306.594 30 A 52.589 52.589 0 0 1 308.938 20.156 A 49.349 49.349 0 0 1 311.762 13.518 A 43.381 43.381 0 0 1 312.875 11.5 A 35.666 35.666 0 0 1 316.682 6.164 A 31.561 31.561 0 0 1 318.141 4.594 Q 321.094 1.625 324.469 0 Z M 161.813 46 L 162.219 47.469 A 72.423 72.423 0 0 1 160.201 48.69 Q 158.378 49.75 156.953 50.406 Q 155.297 51.169 153.904 51.35 A 6.529 6.529 0 0 1 153.063 51.406 A 1.628 1.628 0 0 1 152.066 51.058 Q 151.834 50.884 151.619 50.622 A 3.569 3.569 0 0 1 151.5 50.469 Q 150.813 49.531 150.813 47.688 A 8.312 8.312 0 0 1 150.827 47.23 Q 150.871 46.454 151.043 45.093 A 70.685 70.685 0 0 1 151.047 45.063 Q 151.208 43.795 151.428 42.195 A 453.423 453.423 0 0 1 151.641 40.672 Q 152 38.125 152.484 35.063 Q 152.969 32 153.453 28.813 Q 153.938 25.625 154.422 22.5 Q 154.906 19.375 155.266 16.672 A 292.448 292.448 0 0 0 155.556 14.423 Q 155.685 13.395 155.791 12.476 A 167.242 167.242 0 0 0 155.859 11.875 A 60.445 60.445 0 0 0 155.962 10.891 Q 156.062 9.839 156.086 9.112 A 12.921 12.921 0 0 0 156.094 8.687 A 6.019 6.019 0 0 0 156.08 8.267 Q 156.051 7.851 155.96 7.566 A 1.773 1.773 0 0 0 155.953 7.547 Q 155.857 7.258 155.724 7.072 A 0.98 0.98 0 0 0 155.594 6.922 Q 155.375 6.719 155.078 6.656 A 2.863 2.863 0 0 0 154.606 6.596 A 2.573 2.573 0 0 0 154.5 6.594 A 1.353 1.353 0 0 0 154.347 6.604 Q 154.109 6.631 153.719 6.734 Q 153.188 6.875 152.656 7.031 A 76.896 76.896 0 0 0 152.016 7.227 A 89.393 89.393 0 0 0 151.344 7.437 L 150.844 5.906 A 63.146 63.146 0 0 1 152.892 5.024 A 71.378 71.378 0 0 1 153.609 4.734 A 88.759 88.759 0 0 1 155.371 4.054 A 74.607 74.607 0 0 1 156.375 3.688 A 49.389 49.389 0 0 1 157.47 3.31 Q 158.139 3.089 158.719 2.922 Q 159.75 2.625 160.219 2.625 Q 161.094 2.625 161.609 3.188 Q 162.064 3.683 162.118 4.857 A 7.178 7.178 0 0 1 162.125 5.188 Q 162.125 6.288 161.934 8.129 A 64.193 64.193 0 0 1 161.891 8.531 A 142.557 142.557 0 0 1 161.659 10.501 Q 161.492 11.839 161.281 13.359 A 332.224 332.224 0 0 1 160.879 16.168 A 414.297 414.297 0 0 1 160.422 19.188 Q 159.938 22.313 159.438 25.484 Q 158.938 28.656 158.453 31.734 A 434.299 434.299 0 0 0 157.996 34.703 A 344.03 344.03 0 0 0 157.594 37.453 A 235.588 235.588 0 0 0 157.293 39.644 Q 157.116 40.976 156.984 42.109 A 55.69 55.69 0 0 0 156.882 43.058 Q 156.75 44.391 156.75 45.188 Q 156.75 46.001 156.924 46.42 A 0.987 0.987 0 0 0 157.047 46.641 Q 157.335 47.019 157.813 47.031 A 1.257 1.257 0 0 0 157.844 47.031 A 4.986 4.986 0 0 0 158.512 46.983 Q 158.966 46.922 159.484 46.781 A 16.651 16.651 0 0 0 160.175 46.576 Q 160.533 46.462 160.942 46.318 A 40.763 40.763 0 0 0 161.813 46 Z M 57.844 46.156 L 58.25 47.594 Q 55.563 49.438 53.672 50.422 Q 52.203 51.187 51.272 51.357 A 2.738 2.738 0 0 1 50.781 51.406 A 1.822 1.822 0 0 1 50.061 51.253 A 2.502 2.502 0 0 1 49.656 51.031 Q 49.094 50.656 48.609 49.656 A 6.95 6.95 0 0 1 48.295 48.88 Q 48.154 48.467 48.029 47.974 A 17.751 17.751 0 0 1 47.797 46.906 A 17.511 17.511 0 0 1 47.599 45.523 Q 47.458 44.179 47.438 42.438 A 30.284 30.284 0 0 1 46.385 44.099 A 38.763 38.763 0 0 1 45.422 45.453 Q 44.25 47.031 42.938 48.359 A 16.406 16.406 0 0 1 41.441 49.705 A 13.273 13.273 0 0 1 40.25 50.547 Q 38.991 51.334 37.811 51.4 A 3.861 3.861 0 0 1 37.594 51.406 Q 36.57 51.406 35.431 50.855 A 7.303 7.303 0 0 1 35.344 50.812 Q 34.173 50.227 33.169 48.958 A 9.478 9.478 0 0 1 33.141 48.922 Q 32.235 47.765 31.602 46.011 A 15.823 15.823 0 0 1 31.453 45.578 A 12.351 12.351 0 0 1 30.997 43.636 Q 30.849 42.688 30.802 41.606 A 23.687 23.687 0 0 1 30.781 40.594 A 19.707 19.707 0 0 1 31.375 35.766 Q 31.969 33.406 33.141 31.25 A 21.444 21.444 0 0 1 36 27.203 A 20.815 20.815 0 0 1 39.768 23.907 A 23.002 23.002 0 0 1 39.906 23.812 Q 40.75 23.25 41.766 22.719 A 17.739 17.739 0 0 1 43.891 21.781 A 17.589 17.589 0 0 1 46.125 21.125 Q 47.25 20.875 48.344 20.875 Q 49 20.875 49.625 21.047 Q 50.25 21.219 50.844 21.5 Q 51.438 21.781 52 22.109 A 43.85 43.85 0 0 1 52.547 22.434 A 37.779 37.779 0 0 1 53.063 22.75 Q 53.875 22.219 54.781 21.766 A 135.252 135.252 0 0 0 56.319 20.985 A 122.643 122.643 0 0 0 56.531 20.875 L 57.281 22.281 A 17.026 17.026 0 0 0 56.909 22.596 Q 56.621 22.848 56.406 23.063 A 3.857 3.857 0 0 0 55.882 23.72 A 4.39 4.39 0 0 0 55.797 23.859 A 3.851 3.851 0 0 0 55.579 24.295 Q 55.482 24.523 55.398 24.788 A 6.741 6.741 0 0 0 55.344 24.969 A 14.832 14.832 0 0 0 55.224 25.419 Q 55.089 25.953 54.94 26.676 A 42.023 42.023 0 0 0 54.938 26.687 Q 54.469 28.938 54.063 31.219 A 182.246 182.246 0 0 0 53.684 33.422 A 145.189 145.189 0 0 0 53.359 35.469 A 94.568 94.568 0 0 0 53.127 37.105 Q 52.994 38.101 52.906 38.953 A 53.093 53.093 0 0 0 52.838 39.659 Q 52.754 40.592 52.75 41.104 A 6.468 6.468 0 0 0 52.75 41.156 Q 52.75 43.56 53.009 44.929 A 6.247 6.247 0 0 0 53.188 45.656 Q 53.482 46.58 53.903 46.883 A 0.741 0.741 0 0 0 54.344 47.031 A 5.525 5.525 0 0 0 54.927 46.998 Q 55.324 46.956 55.781 46.859 A 6.939 6.939 0 0 0 56.332 46.717 Q 56.984 46.521 57.844 46.156 Z M 269.625 46.156 L 270.031 47.594 Q 267.344 49.438 265.453 50.422 Q 263.984 51.187 263.053 51.357 A 2.738 2.738 0 0 1 262.563 51.406 A 1.822 1.822 0 0 1 261.842 51.253 A 2.502 2.502 0 0 1 261.438 51.031 Q 260.875 50.656 260.391 49.656 A 6.95 6.95 0 0 1 260.076 48.88 Q 259.935 48.467 259.81 47.974 A 17.751 17.751 0 0 1 259.578 46.906 A 17.511 17.511 0 0 1 259.381 45.523 Q 259.239 44.179 259.219 42.438 A 30.284 30.284 0 0 1 258.166 44.099 A 38.763 38.763 0 0 1 257.203 45.453 Q 256.031 47.031 254.719 48.359 A 16.406 16.406 0 0 1 253.222 49.705 A 13.273 13.273 0 0 1 252.031 50.547 Q 250.773 51.334 249.592 51.4 A 3.861 3.861 0 0 1 249.375 51.406 Q 248.351 51.406 247.212 50.855 A 7.303 7.303 0 0 1 247.125 50.812 Q 245.954 50.227 244.951 48.958 A 9.478 9.478 0 0 1 244.922 48.922 Q 244.016 47.765 243.383 46.011 A 15.823 15.823 0 0 1 243.234 45.578 A 12.351 12.351 0 0 1 242.778 43.636 Q 242.63 42.688 242.584 41.606 A 23.687 23.687 0 0 1 242.563 40.594 A 19.707 19.707 0 0 1 243.156 35.766 Q 243.75 33.406 244.922 31.25 A 21.444 21.444 0 0 1 247.781 27.203 A 20.815 20.815 0 0 1 251.549 23.907 A 23.002 23.002 0 0 1 251.688 23.812 Q 252.531 23.25 253.547 22.719 A 17.739 17.739 0 0 1 255.672 21.781 A 17.589 17.589 0 0 1 257.906 21.125 Q 259.031 20.875 260.125 20.875 Q 260.781 20.875 261.406 21.047 Q 262.031 21.219 262.625 21.5 Q 263.219 21.781 263.781 22.109 A 43.85 43.85 0 0 1 264.328 22.434 A 37.779 37.779 0 0 1 264.844 22.75 Q 265.656 22.219 266.563 21.766 A 135.252 135.252 0 0 0 268.101 20.985 A 122.643 122.643 0 0 0 268.313 20.875 L 269.063 22.281 A 17.026 17.026 0 0 0 268.69 22.596 Q 268.402 22.848 268.188 23.063 A 3.857 3.857 0 0 0 267.663 23.72 A 4.39 4.39 0 0 0 267.578 23.859 A 3.851 3.851 0 0 0 267.361 24.295 Q 267.263 24.523 267.179 24.788 A 6.741 6.741 0 0 0 267.125 24.969 A 14.832 14.832 0 0 0 267.005 25.419 Q 266.87 25.953 266.721 26.676 A 42.023 42.023 0 0 0 266.719 26.687 Q 266.25 28.938 265.844 31.219 A 182.246 182.246 0 0 0 265.465 33.422 A 145.189 145.189 0 0 0 265.141 35.469 A 94.568 94.568 0 0 0 264.908 37.105 Q 264.775 38.101 264.688 38.953 A 53.093 53.093 0 0 0 264.619 39.659 Q 264.536 40.592 264.532 41.104 A 6.468 6.468 0 0 0 264.531 41.156 Q 264.531 43.56 264.79 44.929 A 6.247 6.247 0 0 0 264.969 45.656 Q 265.263 46.58 265.684 46.883 A 0.741 0.741 0 0 0 266.125 47.031 A 5.525 5.525 0 0 0 266.708 46.998 Q 267.106 46.956 267.563 46.859 A 6.939 6.939 0 0 0 268.113 46.717 Q 268.766 46.521 269.625 46.156 Z M 146.25 32.656 Q 146.25 34.75 145.766 36.891 Q 145.281 39.031 144.344 41.047 Q 143.406 43.063 142.047 44.891 Q 140.688 46.719 138.938 48.156 A 18.626 18.626 0 0 1 137.304 49.332 A 20.465 20.465 0 0 1 137.188 49.406 Q 136.25 50 135.266 50.453 Q 134.281 50.906 133.297 51.156 A 8.03 8.03 0 0 1 131.847 51.391 A 7.177 7.177 0 0 1 131.375 51.406 Q 129.094 51.406 127.313 50.484 A 8.936 8.936 0 0 1 124.297 47.953 A 10.82 10.82 0 0 1 122.855 45.396 A 13.266 13.266 0 0 1 122.422 44.141 A 16.219 16.219 0 0 1 121.832 40.788 A 19.353 19.353 0 0 1 121.781 39.375 A 23.59 23.59 0 0 1 122.102 35.438 A 21.656 21.656 0 0 1 122.172 35.047 Q 122.563 32.969 123.438 31.016 A 16.804 16.804 0 0 1 125.399 27.729 A 18.867 18.867 0 0 1 125.75 27.281 Q 127.188 25.5 129.25 23.875 A 16.006 16.006 0 0 1 132.118 22.091 A 18.309 18.309 0 0 1 132.859 21.75 A 10.559 10.559 0 0 1 135.467 20.983 A 9.275 9.275 0 0 1 136.875 20.875 A 11.451 11.451 0 0 1 138.882 21.042 A 8.281 8.281 0 0 1 141.094 21.75 Q 142.875 22.625 144.016 24.188 A 9.944 9.944 0 0 1 145.257 26.494 A 12.466 12.466 0 0 1 145.703 27.906 A 17.647 17.647 0 0 1 146.167 30.697 A 22.317 22.317 0 0 1 146.25 32.656 Z M 140.844 34.625 A 22.217 22.217 0 0 0 140.69 31.919 Q 140.526 30.582 140.185 29.483 A 8.723 8.723 0 0 0 139.188 27.297 A 6.176 6.176 0 0 0 137.864 25.808 A 4.906 4.906 0 0 0 134.719 24.75 A 5.855 5.855 0 0 0 133.25 24.928 A 4.919 4.919 0 0 0 132.203 25.328 A 6.566 6.566 0 0 0 130.266 26.859 A 8.676 8.676 0 0 0 129.184 28.436 A 10.318 10.318 0 0 0 128.859 29.094 Q 128.281 30.375 127.906 31.781 A 18.9 18.9 0 0 0 127.375 34.656 A 28.157 28.157 0 0 0 127.241 36.431 A 23.577 23.577 0 0 0 127.219 37.438 A 15.588 15.588 0 0 0 127.477 40.318 A 13.684 13.684 0 0 0 127.719 41.375 A 14.07 14.07 0 0 0 128.347 43.206 A 11.037 11.037 0 0 0 129.063 44.609 A 8.194 8.194 0 0 0 130.027 45.907 A 6.523 6.523 0 0 0 131.047 46.812 A 4.362 4.362 0 0 0 132.462 47.491 A 4.026 4.026 0 0 0 133.5 47.625 A 5.071 5.071 0 0 0 134.987 47.413 A 4.454 4.454 0 0 0 135.906 47.016 Q 136.969 46.406 137.781 45.391 A 9.86 9.86 0 0 0 138.828 43.769 A 11.697 11.697 0 0 0 139.172 43.047 Q 139.75 41.719 140.125 40.281 Q 140.5 38.844 140.672 37.375 A 25.903 25.903 0 0 0 140.815 35.697 A 20.878 20.878 0 0 0 140.844 34.625 Z M 17.845 35.484 A 89.02 89.02 0 0 0 17.594 37.281 Q 16.406 39.375 15.281 41.078 A 40.21 40.21 0 0 1 14.967 41.547 Q 14.011 42.95 13.125 43.984 Q 12.481 44.736 11.885 45.275 A 8.353 8.353 0 0 1 11.188 45.844 Q 10.642 46.239 10.165 46.396 A 1.925 1.925 0 0 1 9.563 46.5 A 2.522 2.522 0 0 1 8.682 46.341 A 3.136 3.136 0 0 1 7.938 45.937 A 3.744 3.744 0 0 1 7.798 45.832 Q 7.101 45.279 6.547 44.313 A 6.965 6.965 0 0 1 6.452 44.142 Q 6.167 43.611 5.94 42.974 A 11.866 11.866 0 0 1 5.578 41.734 Q 5.219 40.219 5.219 38.281 Q 5.219 37.063 5.484 35.563 A 19.372 19.372 0 0 1 5.519 35.375 A 21.05 21.05 0 0 1 6.266 32.531 Q 6.781 31 7.547 29.563 A 15.144 15.144 0 0 1 7.848 29.024 A 13.192 13.192 0 0 1 9.297 27 A 9.522 9.522 0 0 1 9.689 26.578 A 8.125 8.125 0 0 1 11.469 25.203 Q 12.656 24.531 14.031 24.531 A 3.878 3.878 0 0 1 15.484 24.813 Q 16.188 25.094 16.828 25.547 A 10.043 10.043 0 0 1 18.031 26.547 A 36.529 36.529 0 0 1 19.125 27.656 A 499.482 499.482 0 0 1 18.691 30.336 A 426.121 426.121 0 0 1 18.266 32.875 Q 18.028 34.264 17.845 35.484 Z M 47.938 37.188 Q 48.125 35.844 48.375 34.344 Q 48.625 32.844 48.875 31.422 A 521.861 521.861 0 0 1 49.117 30.055 A 406.968 406.968 0 0 1 49.344 28.797 Q 49.563 27.594 49.719 26.781 A 13.463 13.463 0 0 0 48.906 26.131 A 15.193 15.193 0 0 0 48.703 25.984 Q 48.156 25.594 47.563 25.266 A 6.97 6.97 0 0 0 46.344 24.734 A 4.12 4.12 0 0 0 45.063 24.531 Q 43.656 24.531 42.453 25.219 A 9 9 0 0 0 40.573 26.663 A 10.381 10.381 0 0 0 40.234 27.016 A 12.495 12.495 0 0 0 38.739 29.035 A 14.332 14.332 0 0 0 38.438 29.563 Q 37.656 31 37.109 32.531 A 20.11 20.11 0 0 0 36.336 35.281 A 18.38 18.38 0 0 0 36.281 35.562 Q 36 37.063 36 38.281 A 20.575 20.575 0 0 0 36.069 40.005 Q 36.147 40.929 36.313 41.734 A 13.216 13.216 0 0 0 36.625 42.964 Q 36.81 43.565 37.041 44.072 A 7.398 7.398 0 0 0 37.156 44.312 Q 37.628 45.257 38.261 45.806 A 3.379 3.379 0 0 0 38.422 45.938 A 2.881 2.881 0 0 0 39.103 46.332 A 2.312 2.312 0 0 0 39.969 46.5 A 1.456 1.456 0 0 0 40.433 46.416 Q 40.839 46.279 41.334 45.918 A 6.648 6.648 0 0 0 41.594 45.719 Q 42.388 45.079 43.255 44.082 A 21.134 21.134 0 0 0 43.641 43.625 A 32.72 32.72 0 0 0 44.863 42.035 A 41.983 41.983 0 0 0 45.828 40.641 Q 46.938 38.969 47.938 37.188 Z M 259.719 37.188 Q 259.906 35.844 260.156 34.344 Q 260.406 32.844 260.656 31.422 A 521.861 521.861 0 0 1 260.898 30.055 A 406.968 406.968 0 0 1 261.125 28.797 Q 261.344 27.594 261.5 26.781 A 13.463 13.463 0 0 0 260.687 26.131 A 15.193 15.193 0 0 0 260.484 25.984 Q 259.938 25.594 259.344 25.266 A 6.97 6.97 0 0 0 258.125 24.734 A 4.12 4.12 0 0 0 256.844 24.531 Q 255.438 24.531 254.234 25.219 A 9 9 0 0 0 252.354 26.663 A 10.381 10.381 0 0 0 252.016 27.016 A 12.495 12.495 0 0 0 250.52 29.035 A 14.332 14.332 0 0 0 250.219 29.563 Q 249.438 31 248.891 32.531 A 20.11 20.11 0 0 0 248.118 35.281 A 18.38 18.38 0 0 0 248.063 35.562 Q 247.781 37.063 247.781 38.281 A 20.575 20.575 0 0 0 247.85 40.005 Q 247.928 40.929 248.094 41.734 A 13.216 13.216 0 0 0 248.406 42.964 Q 248.592 43.565 248.823 44.072 A 7.398 7.398 0 0 0 248.938 44.312 Q 249.41 45.257 250.042 45.806 A 3.379 3.379 0 0 0 250.203 45.938 A 2.881 2.881 0 0 0 250.885 46.332 A 2.312 2.312 0 0 0 251.75 46.5 A 1.456 1.456 0 0 0 252.214 46.416 Q 252.62 46.279 253.115 45.918 A 6.648 6.648 0 0 0 253.375 45.719 Q 254.169 45.079 255.036 44.082 A 21.134 21.134 0 0 0 255.422 43.625 A 32.72 32.72 0 0 0 256.645 42.035 A 41.983 41.983 0 0 0 257.609 40.641 Q 258.719 38.969 259.719 37.188 Z M 181.41 25.904 A 7.952 7.952 0 0 0 181 26.156 A 10.204 10.204 0 0 0 180.217 26.73 Q 179.537 27.275 178.766 28.047 A 24.362 24.362 0 0 0 177.548 29.364 Q 176.97 30.033 176.374 30.808 A 39.883 39.883 0 0 0 176.203 31.031 A 31.007 31.007 0 0 0 174.586 33.39 A 37.755 37.755 0 0 0 173.656 34.969 Q 173.388 36.902 173.212 38.455 A 94.124 94.124 0 0 0 173.156 38.953 A 49.138 49.138 0 0 0 173.074 39.772 Q 172.969 40.93 172.969 41.656 A 3.105 3.105 0 0 0 173.106 42.546 Q 173.226 42.95 173.453 43.375 Q 173.938 44.281 174.703 45.047 Q 175.469 45.813 176.422 46.313 Q 177.375 46.813 178.313 46.813 A 5.399 5.399 0 0 0 179.841 46.6 A 4.989 4.989 0 0 0 180.188 46.484 Q 181.063 46.156 181.797 45.594 Q 182.531 45.031 183.141 44.328 Q 183.75 43.625 184.219 42.875 Q 184.906 41.813 185.344 40.625 A 18.107 18.107 0 0 0 186.047 38.219 Q 186.313 37 186.406 35.813 A 30.551 30.551 0 0 0 186.487 34.377 A 25.721 25.721 0 0 0 186.5 33.563 A 19.356 19.356 0 0 0 186.434 31.927 Q 186.35 30.931 186.156 30.078 A 13.118 13.118 0 0 0 185.843 28.929 Q 185.662 28.369 185.443 27.9 A 6.898 6.898 0 0 0 185.266 27.547 A 5.692 5.692 0 0 0 184.798 26.811 Q 184.43 26.324 184 26.016 A 2.969 2.969 0 0 0 183.371 25.665 A 2.249 2.249 0 0 0 182.531 25.5 Q 182.115 25.5 181.41 25.904 Z M 351.469 60.375 L 350.156 59.125 A 30.227 30.227 0 0 0 351.79 57.268 Q 352.551 56.323 353.126 55.423 A 15.354 15.354 0 0 0 353.75 54.359 Q 354.938 52.125 354.938 50.375 Q 354.938 49.781 354.766 49.234 Q 354.594 48.688 354.188 48.281 Q 353.781 47.875 353.125 47.672 A 2.746 2.746 0 0 0 352.634 47.57 Q 352.255 47.526 351.804 47.564 A 5.755 5.755 0 0 0 351.531 47.594 L 351.281 45.844 A 3.445 3.445 0 0 1 351.555 45.62 Q 351.838 45.408 352.267 45.15 A 17.127 17.127 0 0 1 352.688 44.906 A 21.239 21.239 0 0 1 354.214 44.13 A 24.861 24.861 0 0 1 354.859 43.844 A 25.768 25.768 0 0 1 356.434 43.23 A 21.99 21.99 0 0 1 357.125 43 Q 358.219 42.656 358.781 42.656 A 8.485 8.485 0 0 1 359.241 42.93 Q 359.515 43.105 359.734 43.281 A 2.469 2.469 0 0 1 360.351 44.019 A 2.831 2.831 0 0 1 360.375 44.063 A 3.43 3.43 0 0 1 360.605 44.609 A 4.691 4.691 0 0 1 360.75 45.172 A 5.89 5.89 0 0 1 360.826 45.698 Q 360.875 46.176 360.875 46.781 A 5.682 5.682 0 0 1 360.789 47.738 Q 360.71 48.2 360.558 48.703 A 9.925 9.925 0 0 1 360.484 48.938 Q 360.094 50.125 359.406 51.422 A 25.387 25.387 0 0 1 358.252 53.376 A 28.791 28.791 0 0 1 357.813 54.031 Q 356.906 55.344 355.859 56.531 Q 354.813 57.719 353.688 58.719 Q 352.563 59.719 351.469 60.375 Z M 394.5 60.375 L 393.188 59.125 A 30.227 30.227 0 0 0 394.821 57.268 Q 395.582 56.323 396.158 55.423 A 15.354 15.354 0 0 0 396.781 54.359 Q 397.969 52.125 397.969 50.375 Q 397.969 49.781 397.797 49.234 Q 397.625 48.688 397.219 48.281 Q 396.813 47.875 396.156 47.672 A 2.746 2.746 0 0 0 395.665 47.57 Q 395.286 47.526 394.835 47.564 A 5.755 5.755 0 0 0 394.563 47.594 L 394.313 45.844 A 3.445 3.445 0 0 1 394.586 45.62 Q 394.869 45.408 395.298 45.15 A 17.127 17.127 0 0 1 395.719 44.906 A 21.239 21.239 0 0 1 397.245 44.13 A 24.861 24.861 0 0 1 397.891 43.844 A 25.768 25.768 0 0 1 399.465 43.23 A 21.99 21.99 0 0 1 400.156 43 Q 401.25 42.656 401.813 42.656 A 8.485 8.485 0 0 1 402.272 42.93 Q 402.546 43.105 402.766 43.281 A 2.469 2.469 0 0 1 403.383 44.019 A 2.831 2.831 0 0 1 403.406 44.063 A 3.43 3.43 0 0 1 403.637 44.609 A 4.691 4.691 0 0 1 403.781 45.172 A 5.89 5.89 0 0 1 403.857 45.698 Q 403.906 46.176 403.906 46.781 A 5.682 5.682 0 0 1 403.82 47.738 Q 403.741 48.2 403.59 48.703 A 9.925 9.925 0 0 1 403.516 48.938 Q 403.125 50.125 402.438 51.422 A 25.387 25.387 0 0 1 401.283 53.376 A 28.791 28.791 0 0 1 400.844 54.031 Q 399.938 55.344 398.891 56.531 Q 397.844 57.719 396.719 58.719 Q 395.594 59.719 394.5 60.375 Z" vector-effect="non-scaling-stroke"/></g></svg>