<?xml version="1.0"?>
<svg xmlns="http://www.w3.org/2000/svg" viewBox="0 0 50 50" enable-background="new 0 0 50 50">
    <path style="text-indent:0;text-align:start;line-height:normal;text-transform:none;block-progression:tb;-inkscape-font-specification:Bitstream Vera Sans" d="M 31 8 C 31 8 27.634803 7.927697 25.28125 10.28125 A 1.016466 1.016466 0 1 0 26.71875 11.71875 C 28.029896 10.407604 29.637046 10.163797 30.375 10.09375 C 30.577918 10.524775 30.806313 11.000314 30.90625 11.5 A 1.0051139 1.0051139 0 0 0 30.96875 11.6875 C 30.921979 12.039237 30.784356 12.571905 30.5 13.03125 C 30.132536 13.624846 29.706061 14 29 14 C 24.791667 14 22.729016 15.464359 21.78125 16.96875 C 21.307367 17.720945 21.10584 18.426989 20.9375 18.8125 C 20.88986 18.921607 20.87028 18.924481 20.84375 18.96875 C 19.470384 18.95609 18.03695 18.827647 16.90625 18.53125 C 15.73023 18.222973 14.949529 17.669661 14.875 17.53125 A 1.0001 1.0001 0 0 0 14.875 17.5 C 14.295894 16.499726 13.605877 15.690937 12.53125 15.34375 C 11.456623 14.996563 10.207576 15 8 15 C 4.6912698 15 2.7023529 15.806202 1.53125 16.71875 C 0.94569857 17.175024 0.56629287 17.649748 0.34375 18.03125 C 0.12120713 18.412752 0.03125 18.78125 0.03125 18.78125 A 1.0001 1.0001 0 0 0 0.25 19.65625 C 0.25 19.65625 0.6328025 20.058488 1.25 20.375 C 1.8671975 20.691512 2.7912698 21 4 21 C 5.7308081 21 7.4117186 20.83674 8.96875 21.3125 C 9.5526366 21.49091 10.137935 21.750328 10.71875 22.15625 C 10.16098 22.049568 9.5906211 22 9 22 C 4 22 0 26 0 31 C 0 36 4 40 9 40 C 13.385816 40 16.990223 36.911864 17.8125 32.78125 C 18.498058 33.101035 19.273716 33.316199 20.09375 33.5 C 21.635262 33.845511 23.310417 34 24.59375 34 C 26.054861 34 27.439117 33.766041 28.53125 33.34375 C 29.077317 33.132604 29.537825 32.888854 29.9375 32.53125 C 30.337175 32.173646 30.6875 31.638636 30.6875 31 A 1.0001 1.0001 0 0 0 30.6875 30.875 C 30.121722 26.867406 31.234292 24.401291 32.4375 22.875 C 33.058386 22.087395 33.684628 21.572688 34.15625 21.25 C 34.545001 22.127403 34.954996 23.022805 35.40625 23.90625 C 33.320667 25.549167 32 28.116242 32 31 C 32 36 36 40 41 40 C 46 40 50 36 50 31 C 50 26 46 22 41 22 C 39.605769 22 38.298675 22.318004 37.125 22.875 C 36.423774 21.494037 35.808228 20.10288 35.28125 18.78125 C 36.017866 18.928547 36.784954 19 37.5 19 C 38.19848 19 38.776964 18.93421 39.28125 18.75 C 39.785536 18.565786 40.204593 18.225963 40.46875 17.8125 C 40.997064 16.985574 40.90625 16.176143 40.90625 15.5 C 40.90625 14.823857 40.99706 14.014426 40.46875 13.1875 C 40.204593 12.774037 39.785536 12.434214 39.28125 12.25 C 38.776964 12.065786 38.19848 12 37.5 12 C 36.062926 12 34.627721 12.336932 33.5 13.0625 C 33.313045 12.351321 33.014668 11.277467 33 11.21875 C 32.999017 11.214813 32.96875 11.0625 32.96875 11.0625 A 1.0001 1.0001 0 0 0 32.75 10.625 C 32.436422 9.5236609 31.875 8.53125 31.875 8.53125 A 1.0001 1.0001 0 0 0 31 8 z M 37.5 14 C 38.05152 14 38.413661 14.05921 38.59375 14.125 C 38.773839 14.19079 38.757907 14.21346 38.78125 14.25 C 38.82794 14.32307 38.90625 14.776143 38.90625 15.5 C 38.90625 16.223857 38.82794 16.676926 38.78125 16.75 C 38.75791 16.78654 38.77385 16.80921 38.59375 16.875 C 38.413661 16.940786 38.05152 17 37.5 17 C 36.510042 17 35.004533 16.684349 34.4375 16.4375 C 34.308906 16.000821 34.185105 15.561222 34.0625 15.125 A 1.0021002 1.0021002 0 0 0 34.09375 15.09375 C 34.705093 14.482407 36.10875 14 37.5 14 z M 31.875 14.4375 C 32.169345 15.577388 32.449723 16.637852 32.78125 17.75 A 1.0001 1.0001 0 0 0 32.84375 18.03125 C 32.88727 18.154129 32.954556 18.281932 33 18.40625 C 33.109175 18.750815 33.182371 19.064704 33.3125 19.4375 C 32.672204 19.824898 31.818672 20.459185 30.875 21.65625 C 29.393288 23.535829 28.129174 26.580509 28.71875 31 L 28.6875 31 C 28.675327 31.015504 28.658675 31.00112 28.625 31.03125 C 28.4903 31.151771 28.203933 31.317396 27.8125 31.46875 C 27.029633 31.771459 25.832639 32 24.59375 32 C 23.477083 32 21.889738 31.866989 20.53125 31.5625 C 19.252398 31.27586 18.224191 30.725473 17.96875 30.46875 C 17.835181 28.117565 16.831783 26.020622 15.25 24.5 C 13.537826 21.491051 11.524821 20.015396 9.53125 19.40625 C 7.4882814 18.78201 5.5691919 19 4 19 C 3.2306805 19 2.7694507 18.847574 2.40625 18.6875 C 2.5178583 18.555851 2.552991 18.434763 2.75 18.28125 C 3.5038971 17.693798 5.0087302 17 8 17 C 10.192424 17 11.387127 17.07219 11.9375 17.25 C 12.480641 17.425476 12.620868 17.599278 13.125 18.46875 C 13.1324 18.48257 13.14864 18.48638 13.15625 18.5 C 13.788664 19.63118 14.992665 20.10639 16.375 20.46875 C 17.77398 20.835473 19.422222 21 21 21 C 21.457598 21 21.939517 20.758325 22.21875 20.46875 C 22.497983 20.179175 22.629482 19.900995 22.75 19.625 C 22.991035 19.073011 23.155133 18.529055 23.46875 18.03125 C 24.095984 17.035641 25.208333 16 29 16 C 30.295976 16 31.233999 15.263605 31.875 14.4375 z M 9 24 C 10.828125 24 12.47908 24.687088 13.71875 25.8125 A 1.0001221 1.0001221 0 0 0 13.96875 26.0625 C 14.999294 27.100111 15.689507 28.467966 15.90625 30 L 13.90625 30 C 13.458397 27.687641 11.460769 26 9 26 C 6.2 26 4 28.2 4 31 C 4 33.8 6.2 36 9 36 C 11.460769 36 13.458397 34.312359 13.90625 32 L 15.90625 32 C 15.423718 35.410754 12.555825 38 9 38 C 5.1 38 2 34.9 2 31 C 2 27.1 5.1 24 9 24 z M 41 24 C 44.9 24 48 27.1 48 31 C 48 34.9 44.9 38 41 38 C 37.1 38 34 34.9 34 31 C 34 28.88714 34.921001 27.027538 36.375 25.75 C 36.70392 26.335645 37.058614 26.904736 37.40625 27.46875 C 36.52454 28.366337 36 29.616062 36 31 C 36 33.8 38.2 36 41 36 C 43.8 36 46 33.8 46 31 C 46 28.2 43.8 26 41 26 C 40.324618 26 39.676861 26.110206 39.09375 26.34375 C 38.753566 25.78563 38.417591 25.207404 38.09375 24.625 C 38.977073 24.226937 39.958907 24 41 24 z M 9 28 C 10.346848 28 11.446608 28.815588 11.84375 30 L 9 30 A 1.0001 1.0001 0 0 0 8.90625 30 A 1.001098 1.001098 0 0 0 9 32 L 11.84375 32 C 11.446608 33.184412 10.346848 34 9 34 C 7.3 34 6 32.7 6 31 C 6 29.3 7.3 28 9 28 z M 41 28 C 42.7 28 44 29.3 44 31 C 44 32.7 42.7 34 41 34 C 39.3 34 38 32.7 38 31 C 38 30.33 38.213741 29.740641 38.5625 29.25 C 39.445764 30.535628 40.358463 31.707039 41.28125 32.6875 A 1.0001 1.0001 0 1 0 42.71875 31.3125 C 41.88722 30.428999 41.050664 29.318397 40.21875 28.09375 C 40.465243 28.031618 40.729656 28 41 28 z" overflow="visible" enable-background="accumulate" font-family="Bitstream Vera Sans"/>
</svg>
